<?xml version="1.0" standalone="no"?>
<!DOCTYPE svg PUBLIC "-//W3C//DTD SVG 20010904//EN"
 "http://www.w3.org/TR/2001/REC-SVG-20010904/DTD/svg10.dtd">
<svg version="1.0" xmlns="http://www.w3.org/2000/svg"
 width="130.000000pt" height="130.000000pt" viewBox="0 0 130.000000 130.000000"
 preserveAspectRatio="xMidYMid meet">

<g transform="translate(0.000000,130.000000) scale(0.100000,-0.100000)"
fill="#000000" stroke="none">
<path d="M252 1209 c-45 -23 -73 -55 -89 -104 -7 -21 -18 -31 -39 -36 -47 -9
-81 -37 -98 -80 -21 -51 -20 -64 4 -114 25 -51 65 -75 125 -75 44 0 47 -1 41
-22 -15 -48 -18 -194 -7 -250 16 -74 59 -160 113 -222 83 -96 231 -167 342
-165 l51 1 -50 10 c-206 37 -325 122 -403 286 -36 75 -37 79 -37 197 0 175
-12 165 196 165 190 0 222 8 261 63 30 42 36 123 13 171 -25 52 -78 86 -135
86 -40 0 -47 4 -67 35 -46 70 -141 93 -221 54z m159 -40 c15 -10 34 -35 43
-54 17 -35 18 -36 61 -29 55 8 105 -19 129 -70 21 -44 20 -73 -2 -115 -33 -61
-66 -71 -239 -71 -97 0 -153 4 -153 10 0 6 12 29 28 53 l27 42 3 -37 c2 -25 8
-38 18 -38 10 0 14 13 14 49 0 75 -5 82 -54 75 -76 -10 -86 -14 -80 -29 4 -10
15 -12 36 -8 17 3 29 2 27 -3 -2 -5 -17 -33 -32 -61 -27 -52 -28 -53 -73 -53
-39 0 -51 5 -80 34 -69 69 -23 176 75 176 26 0 31 4 31 23 0 69 91 144 160
132 19 -4 46 -15 61 -26z"/>
<path d="M670 1131 c0 -6 15 -11 33 -11 51 0 145 -28 208 -61 126 -68 233
-225 246 -362 l6 -67 -214 -2 -214 -3 -3 -195 c-1 -107 0 -205 3 -217 5 -22
10 -23 100 -23 84 0 94 -2 100 -20 8 -25 -9 -57 -36 -65 -12 -4 -19 -14 -17
-23 3 -15 21 -17 127 -20 145 -3 164 5 113 47 -25 20 -33 34 -30 52 3 23 6 24
98 29 l95 5 3 217 2 217 -52 3 -52 3 -13 80 c-38 227 -214 395 -443 421 -42 5
-60 3 -60 -5z m490 -543 c0 -33 -31 -138 -41 -138 -5 0 -9 4 -9 9 0 22 -21 62
-29 56 -9 -5 14 -91 29 -108 8 -9 110 32 110 45 0 6 -9 8 -20 4 -11 -3 -29 -9
-39 -12 -18 -6 -19 -4 -6 33 7 21 16 60 20 86 l7 48 42 -3 41 -3 0 -155 0
-155 -252 -3 -253 -2 0 153 c0 85 3 157 7 160 3 4 93 7 200 7 192 0 193 0 193
-22z m108 -335 l-3 -28 -252 -3 -253 -2 0 30 0 30 256 0 255 0 -3 -27z m-198
-87 c0 -13 3 -31 6 -40 5 -14 -4 -16 -65 -16 -67 0 -71 1 -62 18 6 10 7 28 4
40 -5 21 -2 22 56 22 58 0 61 -1 61 -24z"/>
<path d="M690 746 c-17 -19 -29 -24 -51 -19 -26 5 -29 3 -29 -19 0 -27 28 -58
53 -58 20 0 87 78 87 102 0 26 -32 23 -60 -6z m50 7 c0 -5 -19 -28 -42 -52
l-42 -43 -18 22 c-21 25 -14 48 8 29 13 -10 21 -7 47 19 31 31 47 40 47 25z"/>
<path d="M821 714 c0 -11 3 -14 6 -6 3 7 2 16 -1 19 -3 4 -6 -2 -5 -13z"/>
<path d="M500 700 c0 -5 5 -10 10 -10 6 0 10 5 10 10 0 6 -4 10 -10 10 -5 0
-10 -4 -10 -10z"/>
<path d="M602 551 c-11 -7 -11 -9 2 -14 9 -4 23 -4 32 0 13 5 13 7 2 14 -7 5
-15 9 -18 9 -3 0 -11 -4 -18 -9z"/>
</g>
</svg>
