<?xml version="1.0" standalone="no"?>
<!DOCTYPE svg PUBLIC "-//W3C//DTD SVG 20010904//EN"
 "http://www.w3.org/TR/2001/REC-SVG-20010904/DTD/svg10.dtd">
<svg version="1.0" xmlns="http://www.w3.org/2000/svg"
 width="130.000000pt" height="146.000000pt" viewBox="0 0 130.000000 146.000000"
 preserveAspectRatio="xMidYMid meet">

<g transform="translate(0.000000,146.000000) scale(0.100000,-0.100000)"
fill="#000000" stroke="none">
<path d="M312 1349 c-10 -16 -10 -23 1 -39 12 -18 14 -18 24 -1 8 12 8 23 -1
39 -11 21 -12 21 -24 1z"/>
<path d="M605 1310 c-4 -6 -3 -16 3 -22 6 -6 12 -6 17 2 4 6 3 16 -3 22 -6 6
-12 6 -17 -2z"/>
<path d="M441 1230 c-10 -5 -9 -8 2 -13 7 -3 19 -2 26 3 10 5 9 8 -2 13 -7 3
-19 2 -26 -3z"/>
<path d="M494 1140 c-12 -4 -24 -16 -27 -25 -6 -13 -11 -14 -28 -5 -29 16 -68
4 -81 -25 -10 -22 -17 -25 -68 -25 -42 0 -61 -5 -73 -18 -20 -22 -22 -73 -5
-90 9 -9 -7 -12 -73 -12 -53 0 -90 -5 -97 -12 -7 -7 -12 -42 -12 -85 0 -69 1
-74 25 -83 l25 -10 0 -340 0 -340 23 -5 c12 -3 209 -4 437 -3 l415 3 3 343 2
343 26 9 c24 10 25 12 22 92 l-3 83 -95 5 c-54 3 -90 9 -82 13 18 12 15 71 -6
90 -13 12 -36 17 -74 17 -49 0 -56 3 -66 25 -13 28 -52 42 -78 27 -14 -8 -23
-5 -41 14 -23 25 -35 28 -69 14z m56 -25 c11 -13 9 -22 -6 -50 l-18 -35 -23
28 c-27 33 -28 48 -5 61 24 15 38 13 52 -4z m-98 -35 c25 -19 58 -76 58 -99 0
-6 -20 4 -44 23 -24 18 -56 36 -70 40 -28 7 -33 25 -14 44 17 17 42 15 70 -8z
m213 -2 c15 -22 14 -23 -22 -36 -21 -7 -56 -27 -77 -44 -28 -22 -38 -26 -33
-14 4 10 7 24 7 31 0 21 68 85 90 85 10 0 26 -10 35 -22z m-291 -52 c48 -15
116 -59 116 -77 0 -5 -48 -9 -113 -9 -86 0 -118 4 -135 16 -24 17 -29 53 -10
72 16 16 84 15 142 -2z m432 6 c24 -16 24 -43 -1 -68 -23 -23 -30 -24 -140
-24 -110 0 -115 1 -106 19 13 24 56 52 106 67 45 14 124 18 141 6z m179 -182
l0 -65 -465 0 -465 0 -3 54 c-2 29 -1 60 2 67 5 12 82 14 468 12 l463 -3 0
-65z m-50 -425 l0 -330 -415 0 -415 0 -3 320 c-1 176 0 326 3 333 3 10 91 12
417 10 l413 -3 0 -330z"/>
<path d="M438 590 c-54 -29 -81 -73 -86 -141 -8 -108 61 -184 169 -184 104 0
169 68 169 178 0 40 -6 63 -23 88 -49 73 -152 99 -229 59z m162 -29 c91 -65
91 -188 1 -248 -119 -80 -273 48 -217 180 37 87 143 120 216 68z"/>
<path d="M534 478 c-28 -25 -44 -32 -69 -29 -41 3 -51 -24 -23 -67 21 -34 50
-48 71 -35 20 11 107 112 107 123 0 11 -29 40 -40 40 -5 0 -26 -14 -46 -32z
m66 -5 c0 -18 -87 -113 -104 -113 -15 0 -56 42 -56 56 0 20 18 26 41 14 19
-10 25 -7 51 24 31 38 68 48 68 19z"/>
</g>
</svg>
