<?xml version="1.0" standalone="no"?>
<!DOCTYPE svg PUBLIC "-//W3C//DTD SVG 20010904//EN"
 "http://www.w3.org/TR/2001/REC-SVG-20010904/DTD/svg10.dtd">
<svg version="1.0" xmlns="http://www.w3.org/2000/svg"
 width="130.000000pt" height="130.000000pt" viewBox="0 0 130.000000 130.000000"
 preserveAspectRatio="xMidYMid meet">

<g transform="translate(0.000000,130.000000) scale(0.100000,-0.100000)"
fill="#000000" stroke="none">
<path d="M235 1170 c3 -5 8 -10 11 -10 2 0 4 5 4 10 0 6 -5 10 -11 10 -5 0 -7
-4 -4 -10z"/>
<path d="M86 1142 c-3 -6 -1 -14 5 -17 15 -10 25 3 12 16 -7 7 -13 7 -17 1z"/>
<path d="M373 1081 c-33 -26 -97 -78 -141 -114 -44 -37 -82 -67 -86 -67 -3 0
-17 21 -32 48 -26 44 -70 91 -86 92 -5 0 -8 -18 -8 -40 0 -30 14 -67 55 -142
39 -72 52 -104 45 -113 -7 -8 -3 -73 13 -201 l23 -190 -31 -14 c-45 -22 -44
-47 2 -68 30 -13 67 -17 168 -17 147 0 201 15 207 57 2 12 11 24 21 26 15 3
17 -7 17 -99 l0 -102 -113 6 c-125 8 -129 6 -155 -55 l-11 -27 157 -3 c86 -2
228 -2 315 0 l159 3 -7 27 c-14 58 -27 63 -147 56 l-109 -7 3 119 3 119 105
43 c81 34 125 46 192 53 104 10 161 31 156 56 -2 10 -13 22 -25 28 -14 6 -24
22 -28 44 -4 19 -19 58 -33 85 -36 69 -36 67 -18 60 9 -3 16 -1 16 4 0 6 -9
14 -20 17 -23 7 -27 25 -5 25 8 0 15 5 15 11 0 7 -11 8 -32 4 l-32 -7 17 25
c31 48 24 55 -53 55 -38 0 -70 -4 -70 -9 0 -6 7 -24 16 -42 12 -21 13 -32 5
-35 -6 -2 -11 -8 -11 -12 0 -5 -14 -31 -30 -57 -17 -26 -38 -71 -46 -99 -12
-41 -21 -54 -44 -64 -35 -15 -39 -42 -10 -63 19 -13 11 -18 -117 -65 -75 -28
-138 -50 -140 -48 -2 2 6 83 18 181 13 111 18 180 12 184 -6 3 5 53 26 123 45
146 68 175 35 44 -13 -52 13 -25 28 30 15 51 14 56 -1 66 -12 7 -16 20 -13 38
3 25 0 29 -28 35 -17 4 -34 5 -36 2 -3 -3 -16 -36 -29 -74 -21 -59 -24 -63
-24 -33 1 19 4 61 8 93 4 31 5 57 2 57 -4 0 -34 -22 -68 -49z m29 -191 l-17
-155 -70 -3 c-39 -1 -75 1 -80 5 -30 22 -96 115 -92 127 7 19 47 41 47 26 0
-5 8 -10 17 -10 13 0 14 3 5 12 -17 17 -15 26 13 44 19 12 28 14 38 5 18 -14
30 -2 15 16 -6 7 -9 15 -7 16 2 1 14 11 26 21 18 15 26 16 37 7 9 -8 16 -8 20
-2 4 5 1 13 -6 17 -8 5 1 18 28 40 38 32 39 33 41 11 2 -12 -5 -92 -15 -177z
m137 174 c2 -2 1 -10 -3 -19 -4 -12 -12 -14 -28 -9 -30 9 -30 8 -22 28 4 12
13 15 28 10 11 -4 23 -8 25 -10z m-32 -62 c10 -6 4 -35 -22 -121 -39 -128 -41
-131 -61 -131 -20 0 -10 77 23 183 23 74 33 86 60 69z m-431 -47 c-11 -8 -22
-12 -25 -9 -6 6 19 24 34 24 6 -1 1 -7 -9 -15z m39 -45 c4 -12 1 -27 -5 -35
-10 -12 -5 -24 26 -62 61 -77 59 -74 35 -65 -14 5 -39 38 -64 85 -36 66 -40
79 -27 87 22 14 28 12 35 -10z m807 -84 c-23 -39 -38 -39 -62 0 l-20 30 50 1
50 1 -18 -32z m24 -91 c37 -40 78 -139 70 -171 -7 -27 -32 -34 -126 -34 -94 0
-119 7 -126 34 -14 58 76 206 126 206 13 0 37 -15 56 -35z m-486 -20 c0 -5 -9
-82 -20 -170 -11 -88 -20 -166 -20 -172 0 -7 -9 -22 -20 -33 -17 -17 -33 -20
-103 -20 -117 0 -120 4 -142 190 -9 80 -19 161 -22 180 l-5 35 166 0 c104 0
166 -4 166 -10z m300 -190 c19 -22 236 -22 261 1 17 16 44 11 34 -6 -10 -16
-149 -33 -220 -27 -78 7 -138 24 -129 38 8 14 40 11 54 -6z m32 -53 c13 -5
-12 -19 -82 -46 l-100 -39 0 -123 0 -124 -25 0 -25 0 0 105 c0 117 -5 126 -61
106 -18 -6 -38 -7 -46 -2 -10 5 35 27 149 69 89 33 165 61 168 61 3 0 13 -3
22 -7z m-609 -159 c28 -26 196 -26 224 -1 20 19 67 14 60 -6 -11 -33 -234 -43
-315 -15 -35 12 -41 25 -14 32 9 3 19 5 21 6 3 0 13 -7 24 -16z"/>
<path d="M309 917 c-8 -7 -30 -24 -48 -40 l-33 -27 38 -50 c21 -28 41 -50 45
-50 4 0 10 21 14 48 3 26 8 64 10 84 6 41 -3 52 -26 35z m2 -78 l-3 -51 -26
26 -26 25 24 26 c13 14 26 25 29 25 3 0 4 -23 2 -51z"/>
<path d="M872 690 c-19 -30 -15 -50 13 -60 14 -5 25 -14 25 -20 0 -5 -11 -10
-25 -10 -29 0 -31 -6 -10 -26 12 -13 17 -12 35 3 27 23 25 49 -5 69 -25 16
-25 40 0 30 21 -8 26 6 7 20 -23 18 -25 17 -40 -6z"/>
<path d="M243 605 c-29 -20 -46 -75 -34 -107 13 -35 58 -68 92 -68 15 0 41 12
58 26 26 21 31 33 31 67 0 23 -6 49 -13 58 -30 39 -96 51 -134 24z m108 -24
c36 -36 37 -73 4 -106 -34 -35 -86 -34 -114 1 -31 39 -27 77 10 108 40 34 64
33 100 -3z"/>
<path d="M306 551 c-9 -10 -25 -17 -35 -14 -10 3 -21 -2 -24 -10 -7 -17 19
-57 37 -57 20 0 68 56 64 76 -5 25 -22 27 -42 5z m34 -9 c0 -5 -11 -19 -24
-32 -25 -22 -56 -22 -56 1 0 6 6 9 14 6 8 -3 22 3 32 14 18 20 34 25 34 11z"/>
<path d="M191 1078 c-1 -10 -6 -18 -11 -18 -6 0 -5 -8 2 -20 10 -16 14 -17 20
-6 5 8 4 25 -1 38 -7 17 -10 18 -10 6z"/>
</g>
</svg>
