<?xml version="1.0" standalone="no"?>
<!DOCTYPE svg PUBLIC "-//W3C//DTD SVG 20010904//EN"
 "http://www.w3.org/TR/2001/REC-SVG-20010904/DTD/svg10.dtd">
<svg version="1.0" xmlns="http://www.w3.org/2000/svg"
 width="130.000000pt" height="130.000000pt" viewBox="0 0 130.000000 130.000000"
 preserveAspectRatio="xMidYMid meet">

<g transform="translate(0.000000,130.000000) scale(0.100000,-0.100000)"
fill="#000000" stroke="none">
<path d="M157 1223 c-4 -3 -7 -198 -7 -433 0 -318 3 -429 12 -438 8 -8 67 -12
199 -12 118 0 190 -4 194 -10 4 -6 9 -34 11 -63 7 -72 -19 -114 -73 -119 -37
-3 -38 -4 -38 -43 l0 -40 265 0 265 0 0 40 c0 39 -1 40 -38 43 -30 3 -42 10
-57 35 -22 35 -26 91 -10 131 l10 26 188 0 c133 0 192 4 200 12 9 9 12 118 12
429 0 230 -3 424 -6 433 -6 14 -64 16 -563 16 -307 0 -561 -3 -564 -7z m1101
-350 l2 -333 -540 0 -540 0 0 328 c0 181 3 332 7 335 3 4 245 6 537 5 l531 -3
3 -332z m0 -425 l-3 -73 -535 0 -535 0 -3 73 -3 72 541 0 541 0 -3 -72z m-405
-171 c-4 -48 -2 -71 11 -95 l17 -32 -161 0 c-88 0 -160 2 -160 5 0 4 7 20 16
37 12 24 15 45 10 90 l-7 58 140 0 140 0 -6 -63z"/>
<path d="M557 1093 c-4 -3 -7 -15 -7 -25 0 -17 -11 -18 -135 -18 -83 0 -135
-4 -135 -10 0 -6 52 -10 135 -10 l135 0 0 -30 0 -30 -129 0 c-76 0 -132 -4
-136 -10 -4 -6 42 -10 129 -10 l136 0 0 -35 0 -34 -137 -4 -138 -3 135 -2
c130 -2 136 -3 145 -24 9 -22 17 -23 120 -26 l110 -3 37 -36 38 -37 0 35 c0
23 6 38 20 47 18 11 20 23 20 126 0 63 -3 121 -6 130 -5 14 -30 16 -168 16
-90 0 -166 -3 -169 -7z m321 -131 c2 -93 0 -113 -13 -118 -8 -3 -15 -15 -15
-25 0 -24 -12 -24 -35 1 -15 17 -33 20 -129 22 l-111 3 -3 118 -3 118 153 -3
153 -3 3 -113z"/>
<path d="M737 996 c-26 -28 -36 -33 -50 -24 -20 11 -47 -5 -47 -27 0 -16 46
-65 61 -65 15 0 109 101 109 117 0 7 -9 17 -21 23 -17 10 -25 6 -52 -24z m53
1 c0 -7 -20 -33 -45 -57 -44 -43 -45 -43 -65 -25 -20 18 -27 45 -12 45 4 0 13
-5 20 -12 10 -10 20 -4 50 25 39 39 52 45 52 24z"/>
<path d="M986 961 c-14 -16 -17 -31 -14 -66 4 -32 1 -48 -9 -57 -30 -25 -43
-68 -43 -143 l0 -75 119 0 c133 0 131 -1 131 73 0 59 -15 106 -45 137 -22 23
-24 29 -13 58 11 28 10 35 -8 59 -28 37 -91 44 -118 14z m85 -11 c22 -12 25
-50 7 -80 -11 -16 -7 -24 25 -55 36 -35 37 -38 37 -105 l0 -70 -100 0 -100 0
0 65 c0 60 2 68 36 105 34 38 35 41 23 74 -11 31 -11 38 6 56 20 22 37 25 66
10z"/>
<path d="M280 720 c0 -6 77 -10 210 -10 133 0 210 4 210 10 0 6 -77 10 -210
10 -133 0 -210 -4 -210 -10z"/>
<path d="M285 640 c-4 -7 67 -10 204 -10 134 0 211 4 211 10 0 14 -407 14
-415 0z"/>
<path d="M696 485 c-3 -8 -12 -15 -21 -15 -17 0 -21 -25 -5 -35 6 -3 10 -14
10 -24 0 -15 8 -18 40 -18 31 0 40 4 40 16 0 10 5 22 11 28 13 13 4 33 -16 33
-7 0 -15 7 -19 15 -3 8 -12 15 -20 15 -7 0 -16 -7 -20 -15z m34 -15 c0 -5 7
-10 16 -10 13 0 14 -3 4 -15 -6 -8 -9 -19 -6 -24 4 -5 -6 -9 -23 -9 -22 1 -30
6 -34 24 -3 16 0 24 9 24 8 0 14 5 14 10 0 6 5 10 10 10 6 0 10 -4 10 -10z"/>
</g>
</svg>
