<?xml version="1.0" standalone="no"?>
<!DOCTYPE svg PUBLIC "-//W3C//DTD SVG 20010904//EN"
 "http://www.w3.org/TR/2001/REC-SVG-20010904/DTD/svg10.dtd">
<svg version="1.0" xmlns="http://www.w3.org/2000/svg"
 width="130.000000pt" height="130.000000pt" viewBox="0 0 130.000000 130.000000"
 preserveAspectRatio="xMidYMid meet">

<g transform="translate(0.000000,130.000000) scale(0.100000,-0.100000)"
fill="#000000" stroke="none">
<path d="M610 1104 c-53 -33 -56 -34 -165 -34 -198 0 -366 -30 -409 -73 -19
-20 -21 -30 -16 -111 3 -59 9 -91 18 -94 17 -5 15 -67 -3 -82 -22 -18 -22
-202 0 -220 20 -17 19 -70 -1 -85 -13 -9 -16 -29 -15 -101 1 -77 4 -91 22
-106 52 -44 243 -73 416 -65 l112 5 52 -39 c29 -21 57 -39 61 -39 12 0 244
178 282 216 47 48 95 125 118 194 21 60 23 82 23 289 l0 225 -85 17 c-107 21
-178 48 -263 99 -36 22 -72 40 -79 39 -7 -1 -38 -16 -68 -35z m120 -24 c25
-17 77 -43 115 -59 61 -25 96 -35 213 -57 22 -4 22 -5 22 -197 0 -328 -33
-397 -278 -584 l-121 -92 -125 95 c-142 108 -185 153 -226 239 -42 89 -50 147
-50 350 0 183 0 185 22 189 117 22 152 32 213 57 39 16 90 42 115 59 25 16 47
29 50 29 3 1 25 -13 50 -29z m-279 -51 c-30 -10 -84 -24 -120 -30 -73 -13 -81
-19 -81 -66 0 -28 -4 -33 -22 -33 -39 0 -152 30 -176 46 -23 15 -23 16 -6 35
35 39 176 66 349 67 l110 1 -54 -20z m-253 -145 l52 -6 0 -64 c0 -35 -2 -64
-6 -64 -21 0 -154 35 -176 46 -26 13 -28 19 -28 73 l0 58 53 -18 c28 -10 76
-21 105 -25z m-10 -146 c60 -11 62 -12 62 -41 l0 -29 -47 7 c-80 12 -123 33
-123 62 0 22 3 24 23 19 12 -4 50 -12 85 -18z m-105 -53 c16 -12 52 -22 145
-41 12 -2 22 -12 22 -21 0 -13 -8 -15 -52 -9 -107 12 -167 39 -155 70 8 19 16
20 40 1z m25 -75 c35 -11 78 -20 95 -20 44 0 53 -9 60 -55 4 -22 10 -50 13
-62 6 -21 3 -23 -27 -23 -47 0 -159 28 -186 46 -20 12 -23 23 -23 74 0 33 1
60 3 60 1 0 31 -9 65 -20z m130 -185 c45 -6 55 -11 68 -37 l16 -31 -69 8 c-37
4 -90 14 -118 23 -42 14 -51 21 -53 44 l-3 26 53 -13 c29 -7 77 -16 106 -20z
m-108 -64 c19 -5 75 -15 125 -21 57 -7 96 -17 105 -27 34 -35 -273 6 -309 42
-7 7 -11 21 -8 30 6 14 9 14 29 1 13 -7 39 -19 58 -25z m-5 -58 c28 -7 98 -16
158 -20 l107 -6 68 -54 c37 -29 69 -58 71 -65 6 -17 -309 -3 -384 17 -95 26
-105 36 -105 101 0 50 2 55 18 49 9 -4 40 -14 67 -22z"/>
<path d="M878 866 c-23 -17 -13 -55 14 -53 29 2 41 31 20 50 -14 13 -20 13
-34 3z m23 -29 c-13 -13 -26 -3 -16 12 3 6 11 8 17 5 6 -4 6 -10 -1 -17z"/>
<path d="M463 862 c-21 -13 -4 -52 21 -48 24 3 34 35 14 47 -16 11 -20 11 -35
1z m28 -25 c-13 -13 -26 -3 -16 12 3 6 11 8 17 5 6 -4 6 -10 -1 -17z"/>
<path d="M623 790 c-46 -28 -67 -65 -67 -119 0 -108 105 -172 202 -122 97 50
97 198 -1 244 -46 22 -95 21 -134 -3z m112 -14 c38 -16 75 -68 75 -104 0 -31
-25 -77 -52 -96 -12 -9 -42 -16 -66 -16 -37 0 -50 6 -78 34 -44 44 -47 99 -7
146 42 50 73 59 128 36z"/>
<path d="M703 706 c-16 -14 -37 -24 -47 -23 -30 3 -42 -27 -23 -57 26 -39 56
-33 100 20 43 54 44 60 18 74 -16 8 -26 5 -48 -14z m47 -9 c0 -7 -17 -30 -38
-50 l-38 -37 -23 24 c-24 25 -12 48 13 27 11 -9 19 -5 37 18 25 31 49 40 49
18z"/>
<path d="M414 754 c-19 -13 -20 -18 -10 -39 11 -23 56 -31 57 -10 0 6 5 15 9
21 6 6 2 17 -10 27 -24 20 -20 20 -46 1z m39 -30 c-3 -8 -11 -14 -18 -14 -17
0 -27 28 -12 33 20 7 36 -4 30 -19z"/>
<path d="M930 760 c0 -5 -7 -10 -16 -10 -11 0 -14 -5 -10 -16 3 -9 6 -21 6
-28 0 -7 12 -13 29 -13 23 0 30 5 34 26 3 16 -1 30 -11 38 -21 15 -32 16 -32
3z m24 -16 c20 -8 9 -34 -15 -34 -18 0 -26 20 -12 33 8 8 8 8 27 1z"/>
<path d="M420 601 c-18 -15 -21 -22 -13 -33 6 -7 12 -17 12 -23 1 -5 16 -10
34 -10 21 0 31 5 29 14 -1 7 2 19 8 26 8 9 4 17 -14 29 -30 19 -26 20 -56 -3z
m60 -11 c4 0 3 -11 -3 -24 -13 -28 -38 -29 -53 -1 -8 16 -7 22 5 27 9 4 22 5
29 2 8 -2 17 -4 22 -4z"/>
<path d="M910 610 c0 -5 -7 -10 -16 -10 -12 0 -15 -6 -10 -22 3 -13 6 -28 6
-34 0 -7 15 -12 35 -12 26 0 35 4 35 17 0 9 6 23 12 29 10 10 8 14 -10 18 -12
4 -22 10 -22 15 0 5 -7 9 -15 9 -8 0 -15 -4 -15 -10z m45 -38 c-3 -8 -5 -17
-5 -20 0 -4 -11 -7 -24 -7 -18 0 -26 7 -29 23 -3 14 1 22 9 22 8 0 14 5 14 10
0 6 8 5 20 -2 11 -7 18 -19 15 -26z"/>
<path d="M523 477 c-4 -8 -16 -16 -26 -20 -13 -5 -15 -11 -8 -24 5 -10 12 -25
14 -33 6 -21 72 -19 72 3 0 8 4 19 8 23 13 13 8 34 -8 34 -9 0 -18 7 -21 15
-7 19 -20 19 -31 2z m43 -53 c-13 -28 -52 -29 -60 -1 -7 28 20 47 49 34 18 -9
20 -14 11 -33z"/>
<path d="M823 477 c-4 -8 -17 -17 -27 -21 -15 -5 -17 -9 -8 -18 7 -7 12 -20
12 -30 0 -17 6 -19 68 -18 4 0 7 7 7 14 0 8 4 18 8 22 13 13 8 34 -8 34 -9 0
-18 7 -21 15 -7 19 -20 19 -31 2z m43 -53 c-13 -28 -52 -29 -60 -1 -7 28 20
47 49 34 18 -9 20 -14 11 -33z"/>
<path d="M658 381 c-8 -10 -22 -21 -29 -23 -11 -4 -12 -9 -1 -27 6 -11 12 -27
12 -34 0 -10 14 -14 46 -15 37 0 44 3 39 15 -3 9 2 24 11 34 14 16 14 18 -8
30 -13 6 -27 18 -31 25 -11 19 -20 18 -39 -5z m32 -10 c0 -5 9 -13 21 -16 15
-5 18 -10 10 -18 -6 -6 -11 -18 -11 -26 0 -11 -10 -16 -30 -17 -22 -1 -30 3
-30 15 0 10 -5 22 -11 28 -8 8 -5 13 10 18 12 3 21 11 21 16 0 5 5 9 10 9 6 0
10 -4 10 -9z"/>
</g>
</svg>
